<svg xmlns="http://www.w3.org/2000/svg" xmlns:xlink="http://www.w3.org/1999/xlink" width="500" zoomAndPan="magnify" viewBox="0 0 375 374.999991" height="500" preserveAspectRatio="xMidYMid meet" version="1.0"><defs><g/></defs><rect x="-37.5" width="450" fill="#ffffff" y="-37.499999" height="449.999989" fill-opacity="1"/><rect x="-37.5" width="450" fill="#ffffff" y="-37.499999" height="449.999989" fill-opacity="1"/><rect x="-37.5" width="450" fill="#000000" y="-37.499999" height="449.999989" fill-opacity="1"/><rect x="-37.5" width="450" fill="#ffffff" y="-37.499999" height="449.999989" fill-opacity="1"/><g fill="#000000" fill-opacity="1"><g transform="translate(101.097654, 264.749983)"><g><path d="M 72.59375 -52 C 72.59375 -43.863281 71.59375 -36.507812 69.59375 -29.9375 C 67.59375 -23.375 64.578125 -17.742188 60.546875 -13.046875 C 56.515625 -8.347656 51.460938 -4.734375 45.390625 -2.203125 C 39.328125 0.328125 32.265625 1.59375 24.203125 1.59375 C 20.535156 1.59375 16.914062 1.375 13.34375 0.9375 C 9.78125 0.507812 6.03125 -0.164062 2.09375 -1.09375 C 2.363281 -4.03125 2.628906 -6.960938 2.890625 -9.890625 C 3.160156 -12.828125 3.429688 -15.765625 3.703125 -18.703125 C 3.898438 -20.296875 4.53125 -21.578125 5.59375 -22.546875 C 6.664062 -23.515625 8.203125 -24 10.203125 -24 C 11.335938 -24 12.785156 -23.796875 14.546875 -23.390625 C 16.316406 -22.992188 18.5 -22.796875 21.09375 -22.796875 C 24.695312 -22.796875 27.832031 -23.296875 30.5 -24.296875 C 33.164062 -25.296875 35.398438 -26.925781 37.203125 -29.1875 C 39.003906 -31.457031 40.351562 -34.410156 41.25 -38.046875 C 42.144531 -41.679688 42.59375 -46.097656 42.59375 -51.296875 L 42.59375 -145.09375 L 72.59375 -145.09375 Z M 72.59375 -52 "/></g></g></g><g fill="#000000" fill-opacity="1"><g transform="translate(187.495666, 264.749983)"><g><path d="M 72.59375 -52 C 72.59375 -43.863281 71.59375 -36.507812 69.59375 -29.9375 C 67.59375 -23.375 64.578125 -17.742188 60.546875 -13.046875 C 56.515625 -8.347656 51.460938 -4.734375 45.390625 -2.203125 C 39.328125 0.328125 32.265625 1.59375 24.203125 1.59375 C 20.535156 1.59375 16.914062 1.375 13.34375 0.9375 C 9.78125 0.507812 6.03125 -0.164062 2.09375 -1.09375 C 2.363281 -4.03125 2.628906 -6.960938 2.890625 -9.890625 C 3.160156 -12.828125 3.429688 -15.765625 3.703125 -18.703125 C 3.898438 -20.296875 4.53125 -21.578125 5.59375 -22.546875 C 6.664062 -23.515625 8.203125 -24 10.203125 -24 C 11.335938 -24 12.785156 -23.796875 14.546875 -23.390625 C 16.316406 -22.992188 18.5 -22.796875 21.09375 -22.796875 C 24.695312 -22.796875 27.832031 -23.296875 30.5 -24.296875 C 33.164062 -25.296875 35.398438 -26.925781 37.203125 -29.1875 C 39.003906 -31.457031 40.351562 -34.410156 41.25 -38.046875 C 42.144531 -41.679688 42.59375 -46.097656 42.59375 -51.296875 L 42.59375 -145.09375 L 72.59375 -145.09375 Z M 72.59375 -52 "/></g></g></g></svg>