<?xml version="1.0" encoding="UTF-8"?><svg xmlns="http://www.w3.org/2000/svg" viewBox="0 0 610.13 359"><defs><style>.c{fill:#142336;}</style></defs><g id="a"><g><path class="c" d="M100.68,137.33l-.2,26.2H31.68v34.4h63.2v26.4H31.68v53H.08V137.33H100.68Z"/><path class="c" d="M198.68,137.33v140h-31.6V137.33h31.6Z"/><path class="c" d="M306.48,137.33l68,90v-90h30v140h-28.8l-67.8-89.8v89.8h-30.2V137.33h28.8Z"/><path class="c" d="M512.08,137.33l68,90v-90h30v140h-28.8l-67.8-89.8v89.8h-30.2V137.33h28.8Z"/></g><g><path class="c" d="M170.15,343.47v15.02h-3.12v-36.88h12.56c3.83,0,6.86,.98,9.08,2.94,2.22,1.96,3.33,4.65,3.33,8.08s-1.07,6.13-3.2,8.02-5.23,2.82-9.28,2.82h-9.37Zm0-2.63h9.45c3.02,0,5.33-.72,6.92-2.16s2.38-3.44,2.38-6.01-.79-4.59-2.37-6.1c-1.58-1.51-3.82-2.29-6.73-2.32h-9.65v16.59Z"/><path class="c" d="M214.09,348.13h-16.74l-3.8,10.36h-3.27l13.96-36.88h2.96l13.96,36.88h-3.24l-3.83-10.36Zm-15.78-2.63h14.79l-7.4-20.09-7.4,20.09Z"/><path class="c" d="M239.06,343.12h-10.71v15.38h-3.14v-36.88h11.98c3.93,0,7.01,.95,9.22,2.86s3.32,4.57,3.32,8c0,2.36-.69,4.44-2.08,6.25s-3.24,3.05-5.57,3.74l9.22,15.7v.33h-3.32l-8.92-15.38Zm-10.71-2.63h9.55c2.62,0,4.72-.74,6.31-2.23,1.59-1.49,2.38-3.42,2.38-5.78,0-2.6-.83-4.63-2.48-6.06-1.66-1.44-3.98-2.16-6.97-2.16h-8.79v16.24Z"/><path class="c" d="M280.96,324.24h-12.64v34.25h-3.12v-34.25h-12.61v-2.63h28.37v2.63Z"/><path class="c" d="M314.11,358.49h-3.12l-21.2-31.56v31.56h-3.14v-36.88h3.14l21.23,31.59v-31.59h3.09v36.88Z"/><path class="c" d="M341.51,340.81h-17.25v15.05h19.83v2.63h-22.95v-36.88h22.82v2.63h-19.71v13.93h17.25v2.63Z"/><path class="c" d="M364.18,343.12h-10.71v15.38h-3.14v-36.88h11.98c3.93,0,7.01,.95,9.22,2.86,2.21,1.91,3.32,4.57,3.32,8,0,2.36-.69,4.44-2.08,6.25-1.38,1.8-3.24,3.05-5.57,3.74l9.22,15.7v.33h-3.32l-8.92-15.38Zm-10.71-2.63h9.55c2.62,0,4.72-.74,6.31-2.23,1.59-1.49,2.38-3.42,2.38-5.78,0-2.6-.83-4.63-2.48-6.06s-3.98-2.16-6.97-2.16h-8.79v16.24Z"/><path class="c" d="M401.87,349.42c0-2.04-.72-3.66-2.15-4.85-1.44-1.19-4.06-2.32-7.88-3.39-3.82-1.07-6.6-2.24-8.36-3.51-2.5-1.79-3.75-4.14-3.75-7.04s1.16-5.11,3.48-6.88c2.32-1.76,5.29-2.65,8.9-2.65,2.45,0,4.64,.47,6.57,1.42,1.93,.95,3.43,2.26,4.5,3.95,1.06,1.69,1.6,3.57,1.6,5.65h-3.14c0-2.52-.86-4.55-2.58-6.08-1.72-1.53-4.04-2.3-6.94-2.3s-5.07,.63-6.74,1.89c-1.67,1.26-2.51,2.91-2.51,4.93,0,1.88,.75,3.41,2.25,4.59,1.5,1.18,3.91,2.23,7.22,3.13,3.31,.9,5.82,1.84,7.52,2.81s2.99,2.13,3.85,3.48c.86,1.35,1.29,2.95,1.29,4.79,0,2.9-1.16,5.24-3.48,6.99-2.32,1.76-5.38,2.63-9.18,2.63-2.6,0-4.99-.46-7.16-1.39-2.17-.93-3.82-2.23-4.94-3.9-1.12-1.67-1.68-3.59-1.68-5.75h3.12c0,2.6,.97,4.65,2.91,6.16,1.94,1.5,4.53,2.25,7.75,2.25,2.87,0,5.18-.63,6.92-1.9,1.74-1.27,2.61-2.95,2.61-5.04Z"/></g><g><path class="c" d="M75.21,1.35l21.33,56.34L118.68,1.35h9V65.61h-6.12V10.08h-.18l-21.96,55.53h-5.76L72.51,10.08h-.18v55.53h-6.12V1.35h9Z"/><path class="c" d="M149.64,1.35V65.61h-6.12V1.35h6.12Z"/><path class="c" d="M172.59,1.35l37.44,54.36h.18V1.35h6.12V65.61h-6.84L172.05,11.25h-.18v54.36h-6.12V1.35h6.84Z"/><path class="c" d="M276,1.35V6.57h-22.41v59.04h-6.12V6.57h-22.32V1.35h50.85Z"/><path class="c" d="M328.83,1.35V6.57h-22.41v59.04h-6.12V6.57h-22.32V1.35h50.85Z"/><path class="c" d="M337.74,1.35l14.58,56.25h.18L368.16,1.35h7.65l15.75,56.25h.18L406.41,1.35h6.12l-17.73,64.26h-6.48l-16.29-57.51h-.18l-16.2,57.51h-6.66L331.17,1.35h6.57Z"/><path class="c" d="M428.64,1.35V65.61h-6.12V1.35h6.12Z"/><path class="c" d="M449.25,52.74c1.08,2.22,2.57,3.99,4.46,5.31,1.89,1.32,4.12,2.27,6.71,2.83,2.58,.57,5.34,.85,8.28,.85,1.68,0,3.51-.24,5.49-.72,1.98-.48,3.82-1.24,5.54-2.29,1.71-1.05,3.13-2.4,4.27-4.05,1.14-1.65,1.71-3.65,1.71-5.98,0-1.8-.41-3.36-1.21-4.68-.81-1.32-1.86-2.43-3.15-3.33-1.29-.9-2.71-1.63-4.27-2.2-1.56-.57-3.09-1.04-4.59-1.4l-14.31-3.51c-1.86-.48-3.68-1.08-5.44-1.8-1.77-.72-3.32-1.68-4.64-2.88-1.32-1.2-2.38-2.67-3.19-4.41-.81-1.74-1.22-3.87-1.22-6.39,0-1.56,.3-3.39,.9-5.49,.6-2.1,1.72-4.08,3.38-5.94,1.65-1.86,3.92-3.43,6.79-4.72,2.88-1.29,6.57-1.94,11.07-1.94,3.18,0,6.21,.42,9.09,1.26,2.88,.84,5.4,2.1,7.56,3.78,2.16,1.68,3.88,3.77,5.18,6.25,1.29,2.49,1.93,5.39,1.93,8.69h-6.12c-.12-2.46-.67-4.6-1.67-6.44-.99-1.83-2.28-3.36-3.87-4.59-1.59-1.23-3.42-2.16-5.49-2.79-2.07-.63-4.25-.95-6.53-.95-2.1,0-4.13,.23-6.08,.68-1.95,.45-3.66,1.17-5.13,2.16-1.47,.99-2.66,2.3-3.55,3.92-.9,1.62-1.35,3.63-1.35,6.03,0,1.5,.25,2.81,.77,3.92,.51,1.11,1.21,2.06,2.11,2.83,.9,.78,1.94,1.41,3.11,1.89,1.17,.48,2.41,.87,3.74,1.17l15.66,3.87c2.28,.6,4.42,1.34,6.44,2.21,2.01,.87,3.78,1.95,5.31,3.24,1.53,1.29,2.73,2.87,3.6,4.73,.87,1.86,1.3,4.11,1.3,6.75,0,.72-.08,1.68-.22,2.88-.15,1.2-.51,2.48-1.08,3.82-.57,1.35-1.38,2.72-2.43,4.1-1.05,1.38-2.49,2.63-4.32,3.73-1.83,1.11-4.1,2.01-6.79,2.7-2.7,.69-5.94,1.03-9.72,1.03s-7.29-.44-10.53-1.3c-3.24-.87-6-2.21-8.28-4-2.28-1.8-4.04-4.11-5.26-6.93-1.23-2.82-1.76-6.21-1.58-10.17h6.12c-.06,3.3,.45,6.06,1.53,8.28Z"/><path class="c" d="M548.33,1.35V6.57h-22.41v59.04h-6.12V6.57h-22.32V1.35h50.85Z"/></g></g><g id="b"><rect class="c" y="101.47" width="610.13" height="1"/></g></svg>