<?xml version="1.0" standalone="no"?>
<!DOCTYPE svg PUBLIC "-//W3C//DTD SVG 20010904//EN"
 "http://www.w3.org/TR/2001/REC-SVG-20010904/DTD/svg10.dtd">
<svg version="1.0" xmlns="http://www.w3.org/2000/svg"
 width="192.000000pt" height="192.000000pt" viewBox="0 0 192.000000 192.000000"
 preserveAspectRatio="xMidYMid meet">

<g transform="translate(0.000000,192.000000) scale(0.100000,-0.100000)"
fill="#000000" stroke="none">
<path d="M866 1911 c-4 -5 -25 -12 -49 -16 -130 -20 -286 -82 -393 -156 -68
-46 -168 -144 -220 -213 -87 -116 -159 -291 -179 -433 -4 -29 -11 -55 -16 -59
-12 -7 -12 -141 0 -148 5 -3 12 -27 15 -53 19 -130 86 -306 156 -408 129 -188
338 -330 560 -382 58 -14 113 -29 122 -34 23 -12 174 -12 196 0 9 6 53 17 97
26 156 33 301 103 420 205 60 51 125 125 125 142 0 18 -50 58 -72 58 -15 0
-43 -20 -78 -56 -349 -357 -925 -329 -1237 60 -330 413 -193 1029 281 1260
133 65 205 81 366 81 185 0 304 -33 447 -127 179 -116 302 -289 360 -508 24
-89 24 -309 1 -362 -32 -72 -115 -98 -179 -55 -47 31 -58 72 -58 210 -1 136
-17 183 -82 241 -53 48 -100 66 -174 66 -64 0 -107 -13 -160 -50 -39 -26 -46
-25 -92 5 -52 36 -83 30 -101 -17 l-15 -38 52 -48 51 -48 0 -165 c0 -194 3
-202 70 -197 l45 3 5 172 c4 153 7 175 26 199 68 92 170 92 238 1 18 -24 21
-48 26 -171 5 -137 6 -145 35 -192 19 -30 49 -60 79 -79 43 -26 59 -30 120
-30 57 0 80 5 116 25 61 34 106 96 121 167 7 32 16 62 21 67 11 14 10 202 -2
224 -5 9 -18 54 -29 98 -86 357 -358 627 -711 704 -52 12 -103 26 -112 31 -23
12 -185 12 -192 0z"/>
<path d="M558 1233 c-20 -5 -27 -37 -31 -138 l-2 -70 -89 -3 c-50 -2 -96 -8
-103 -14 -17 -14 -17 -82 0 -96 7 -6 53 -12 103 -14 l89 -3 5 -93 c5 -99 17
-122 63 -122 48 0 57 16 57 101 0 116 2 119 108 119 99 0 112 7 112 60 0 53
-13 60 -112 60 -106 0 -108 3 -108 119 0 69 -3 82 -19 91 -20 10 -42 11 -73 3z"/>
</g>
</svg>
